<svg id="Layer_1" data-name="Layer 1" xmlns="http://www.w3.org/2000/svg" xmlns:xlink="http://www.w3.org/1999/xlink" viewBox="0 0 128 128"><defs><style>.cls-1{fill:#d1d1d1;opacity:0.6;}.cls-1,.cls-3{isolation:isolate;}.cls-2{fill:#fff;stroke:#d8d8d8;stroke-miterlimit:10;}.cls-3{fill:#84a3d1;opacity:0.5;}.cls-4{fill:#3b1f5e;}.cls-5{fill:#b658c6;}.cls-6{fill:#d988ea;}.cls-7{fill:#e6d8ef;}.cls-8{fill:url(#linear-gradient);}</style><linearGradient id="linear-gradient" x1="28" y1="99" x2="68.8" y2="99" gradientTransform="matrix(1, 0, 0, -1, 0, 128)" gradientUnits="userSpaceOnUse"><stop offset="0" stop-color="#fff"/><stop offset="1" stop-color="#fff" stop-opacity="0"/></linearGradient></defs><title>appGrid</title><path class="cls-1" d="M121.5,127.5H12.4A6.53,6.53,0,0,1,6,121V12a6.62,6.62,0,0,1,6.5-6.5H121.7a6.53,6.53,0,0,1,6.4,6.5V121A6.77,6.77,0,0,1,121.5,127.5Z"/><path class="cls-2" d="M115.9,123H6.6a6.53,6.53,0,0,1-6.4-6.5V7.5A6.6,6.6,0,0,1,6.6,1H115.9a6.53,6.53,0,0,1,6.4,6.5v109A6.47,6.47,0,0,1,115.9,123Z"/><path class="cls-3" d="M98.9,112.4H31.6a4.06,4.06,0,0,1-4.1-4.1V22.5a4.06,4.06,0,0,1,4.1-4.1H98.9a4.06,4.06,0,0,1,4.1,4.1v85.8A4.19,4.19,0,0,1,98.9,112.4Z"/><path class="cls-4" d="M91.8,106.6H26.5a5.12,5.12,0,0,1-5.1-5.1V17.7a5.12,5.12,0,0,1,5.1-5.1H91.8a5.12,5.12,0,0,1,5.1,5.1v83.9A5.1,5.1,0,0,1,91.8,106.6Z"/><path class="cls-5" d="M42.9,61h-13a2.69,2.69,0,0,1-2.7-2.7V48.7A2.69,2.69,0,0,1,29.9,46h13a2.69,2.69,0,0,1,2.7,2.7v9.6A2.75,2.75,0,0,1,42.9,61Z"/><path class="cls-5" d="M65.6,61h-13a2.69,2.69,0,0,1-2.7-2.7V48.7A2.69,2.69,0,0,1,52.6,46h13a2.69,2.69,0,0,1,2.7,2.7v9.6A2.69,2.69,0,0,1,65.6,61Z"/><path class="cls-5" d="M88.4,61h-13a2.69,2.69,0,0,1-2.7-2.7V48.7A2.69,2.69,0,0,1,75.4,46h13a2.69,2.69,0,0,1,2.7,2.7v9.6A2.82,2.82,0,0,1,88.4,61Z"/><path class="cls-5" d="M42.9,79.9h-13a2.69,2.69,0,0,1-2.7-2.7V67.6a2.69,2.69,0,0,1,2.7-2.7h13a2.69,2.69,0,0,1,2.7,2.7v9.6A2.75,2.75,0,0,1,42.9,79.9Z"/><path class="cls-5" d="M65.6,79.9h-13a2.69,2.69,0,0,1-2.7-2.7V67.6a2.69,2.69,0,0,1,2.7-2.7h13a2.69,2.69,0,0,1,2.7,2.7v9.6A2.69,2.69,0,0,1,65.6,79.9Z"/><path class="cls-6" d="M88.4,99h-13a2.69,2.69,0,0,1-2.7-2.7V67.7A2.69,2.69,0,0,1,75.4,65h13a2.69,2.69,0,0,1,2.7,2.7V96.3A2.82,2.82,0,0,1,88.4,99Z"/><path class="cls-5" d="M42.9,99h-13a2.69,2.69,0,0,1-2.7-2.7V86.7A2.69,2.69,0,0,1,29.9,84h13a2.69,2.69,0,0,1,2.7,2.7v9.6A2.75,2.75,0,0,1,42.9,99Z"/><path class="cls-5" d="M65.6,99h-13a2.69,2.69,0,0,1-2.7-2.7V86.7A2.69,2.69,0,0,1,52.6,84h13a2.69,2.69,0,0,1,2.7,2.7v9.6A2.69,2.69,0,0,1,65.6,99Z"/><path class="cls-4" d="M81.1,92V89.1a7.72,7.72,0,0,1-4.2-1.2L77.6,86a6.94,6.94,0,0,0,3.9,1.2c1.9,0,3.3-1.2,3.3-2.8s-1.1-2.5-3.1-3.4c-2.8-1.1-4.5-2.4-4.5-4.9a4.7,4.7,0,0,1,4.1-4.6V68.6H83v2.7a7.74,7.74,0,0,1,3.6,1l-0.7,1.9a6.92,6.92,0,0,0-3.5-1c-2.1,0-2.9,1.3-2.9,2.4,0,1.5,1,2.2,3.4,3.2,2.8,1.2,4.2,2.7,4.2,5.2a4.89,4.89,0,0,1-4.3,4.8V92H81.1Z"/><path class="cls-7" d="M89.3,37.8h-61a1.37,1.37,0,0,1-1.4-1.4V21.7a1.37,1.37,0,0,1,1.4-1.4h61a1.37,1.37,0,0,1,1.4,1.4V36.4A1.37,1.37,0,0,1,89.3,37.8Z"/><path class="cls-8" d="M29.5,22c-0.6,0-1.5.2-1.5,0.8V35.3c0,0.6.9,0.7,1.5,0.7H54L68.8,22H29.5Z"/></svg>