<svg id="Layer_1" data-name="Layer 1" xmlns="http://www.w3.org/2000/svg" viewBox="0 0 24 24"><defs><style>.cls-1{fill:#3b1f5e;}.cls-2{fill:#b658c6;}.cls-3{fill:#d988ea;}.cls-4{fill:#fff;}</style></defs><title>grain</title><path class="cls-1" d="M19.57,22.9H4.43a1.18,1.18,0,0,1-1.18-1.18V2.28A1.18,1.18,0,0,1,4.43,1.1H19.57a1.18,1.18,0,0,1,1.18,1.18V21.72a1.18,1.18,0,0,1-1.18,1.18"/><path class="cls-2" d="M19.57,22.4H4.43a0.69,0.69,0,0,1-.68-0.68V2.28A0.69,0.69,0,0,1,4.43,1.6H19.57a0.69,0.69,0,0,1,.68.68V21.72a0.69,0.69,0,0,1-.68.68v1a1.68,1.68,0,0,0,1.68-1.68V2.28A1.68,1.68,0,0,0,19.57.6H4.43A1.68,1.68,0,0,0,2.75,2.28V21.72A1.68,1.68,0,0,0,4.43,23.4H19.57v-1h0Z"/><rect class="cls-2" x="4.94" y="9.02" width="4.05" height="3.3" rx="0.59" ry="0.59"/><rect class="cls-2" x="9.97" y="9.02" width="4.05" height="3.3" rx="0.59" ry="0.59"/><rect class="cls-2" x="15.01" y="9.02" width="4.05" height="3.3" rx="0.59" ry="0.59"/><rect class="cls-2" x="4.94" y="13.2" width="4.05" height="3.3" rx="0.59" ry="0.59"/><rect class="cls-2" x="9.97" y="13.2" width="4.05" height="3.3" rx="0.59" ry="0.59"/><rect class="cls-3" x="15.01" y="13.2" width="4.05" height="7.52" rx="0.59" ry="0.59"/><rect class="cls-2" x="4.94" y="17.42" width="4.05" height="3.3" rx="0.59" ry="0.59"/><rect class="cls-2" x="9.97" y="17.42" width="4.05" height="3.3" rx="0.59" ry="0.59"/><path class="cls-1" d="M16.86,19.18V18.55a1.73,1.73,0,0,1-.93-0.28l0.15-.42a1.58,1.58,0,0,0,.87.27,0.64,0.64,0,0,0,.72-0.61A0.85,0.85,0,0,0,17,16.76a1.22,1.22,0,0,1-1-1.08,1,1,0,0,1,.92-1V14h0.38v0.61a1.58,1.58,0,0,1,.79.22l-0.15.41a1.43,1.43,0,0,0-.76-0.21,0.56,0.56,0,0,0-.64.54,0.87,0.87,0,0,0,.75.71,1.21,1.21,0,0,1,.94,1.14,1.08,1.08,0,0,1-1,1.06v0.65H16.86Z"/><path class="cls-4" d="M18.68,7.18H5.18a0.31,0.31,0,0,1-.31-0.31V3.62a0.31,0.31,0,0,1,.31-0.31h13.5a0.31,0.31,0,0,1,.31.31V6.87a0.31,0.31,0,0,1-.31.31"/></svg>