<svg id="Layer_1" data-name="Layer 1" xmlns="http://www.w3.org/2000/svg" xmlns:xlink="http://www.w3.org/1999/xlink" viewBox="0 0 150 150"><defs><style>.cls-1{fill:#fff;}.cls-2{fill:url(#linear-gradient);}.cls-3{fill:#84a3d1;opacity:0.5;}.cls-4{fill:#3b1f5e;}.cls-5{fill:#b658c6;}.cls-6{fill:#d988ea;}.cls-7{fill:#e6d8ef;}.cls-8{fill:url(#linear-gradient-2);}</style><linearGradient id="linear-gradient" y1="150" x2="150" gradientUnits="userSpaceOnUse"><stop offset="0" stop-color="#e3d5f7"/><stop offset="0.19" stop-color="#e3d5f7" stop-opacity="0.79"/><stop offset="0.59" stop-color="#e3d5f7" stop-opacity="0.37"/><stop offset="0.87" stop-color="#e3d5f7" stop-opacity="0.1"/><stop offset="1" stop-color="#e3d5f7" stop-opacity="0"/></linearGradient><linearGradient id="linear-gradient-2" x1="36" y1="38" x2="84.28" y2="38" gradientUnits="userSpaceOnUse"><stop offset="0" stop-color="#fff"/><stop offset="0.22" stop-color="#fff" stop-opacity="0.76"/><stop offset="0.6" stop-color="#fff" stop-opacity="0.36"/><stop offset="0.87" stop-color="#fff" stop-opacity="0.1"/><stop offset="1" stop-color="#fff" stop-opacity="0"/></linearGradient></defs><title>market</title><rect class="cls-1" width="150" height="150"/><rect class="cls-2" width="150" height="150"/><rect class="cls-3" x="35.1" y="25.42" width="89.87" height="111.95" rx="4.1" ry="4.1"/><rect class="cls-4" x="27.85" y="18.54" width="89.87" height="111.95" rx="5.09" ry="5.09"/><rect class="cls-5" x="34.81" y="58.47" width="21.8" height="17.76" rx="2.67" ry="2.67"/><rect class="cls-5" x="61.88" y="58.47" width="21.8" height="17.76" rx="2.67" ry="2.67"/><rect class="cls-5" x="88.95" y="58.47" width="21.8" height="17.76" rx="2.67" ry="2.67"/><rect class="cls-5" x="34.81" y="80.97" width="21.8" height="17.76" rx="2.67" ry="2.67"/><rect class="cls-5" x="61.88" y="80.97" width="21.8" height="17.76" rx="2.67" ry="2.67"/><rect class="cls-6" x="88.95" y="80.97" width="21.8" height="40.44" rx="2.67" ry="2.67"/><rect class="cls-5" x="34.81" y="103.65" width="21.8" height="17.76" rx="2.67" ry="2.67"/><rect class="cls-5" x="61.88" y="103.65" width="21.8" height="17.76" rx="2.67" ry="2.67"/><path class="cls-4" d="M98.94,113.14v-3.4a9.3,9.3,0,0,1-5-1.48L94.73,106a8.51,8.51,0,0,0,4.7,1.45c2.32,0,3.88-1.38,3.88-3.3s-1.27-3-3.69-4c-3.33-1.35-5.39-2.89-5.39-5.82a5.46,5.46,0,0,1,4.93-5.42V85.5h2v3.27a8.51,8.51,0,0,1,4.24,1.18l-0.82,2.22A7.72,7.72,0,0,0,100.5,91C98,91,97,92.57,97,93.92c0,1.75,1.21,2.63,4,3.84,3.36,1.41,5.06,3.16,5.06,6.16a5.79,5.79,0,0,1-5.16,5.72v3.5H98.94Z"/><rect class="cls-7" x="34.42" y="27.77" width="75.94" height="20.8" rx="1.38" ry="1.38"/><path class="cls-8" d="M37.51,29A1.83,1.83,0,0,0,36,30.73V45.62A1.49,1.49,0,0,0,37.51,47H66.62L84.28,29H37.51Z"/></svg>